<mxfile host="Electron" modified="2023-12-15T02:24:36.181Z" agent="Mozilla/5.0 (Windows NT 10.0; Win64; x64) AppleWebKit/537.36 (KHTML, like Gecko) draw.io/21.4.0 Chrome/112.0.5615.204 Electron/24.5.1 Safari/537.36" etag="evHaHO5kyirxMtBbbjJI" version="21.4.0" type="device" pages="3">
  <diagram name="第 1 页" id="LF2I0NXSDCZ9lzxPVgI2">
    <mxGraphModel dx="1548" dy="902" grid="1" gridSize="10" guides="1" tooltips="1" connect="1" arrows="1" fold="1" page="1" pageScale="1" pageWidth="827" pageHeight="1169" math="0" shadow="0">
      <root>
        <mxCell id="0" />
        <mxCell id="1" parent="0" />
        <mxCell id="Pe54-ei3SecUxiNzrxK5-8" style="edgeStyle=orthogonalEdgeStyle;rounded=0;sketch=1;hachureGap=4;jiggle=2;curveFitting=1;orthogonalLoop=1;jettySize=auto;html=1;exitX=1;exitY=0.5;exitDx=0;exitDy=0;fontFamily=Architects Daughter;fontSource=https%3A%2F%2Ffonts.googleapis.com%2Fcss%3Ffamily%3DArchitects%2BDaughter;fontSize=16;" edge="1" parent="1" source="Pe54-ei3SecUxiNzrxK5-2" target="Pe54-ei3SecUxiNzrxK5-6">
          <mxGeometry relative="1" as="geometry" />
        </mxCell>
        <mxCell id="Pe54-ei3SecUxiNzrxK5-2" value="提出问题" style="rounded=0;whiteSpace=wrap;html=1;sketch=1;hachureGap=4;jiggle=2;curveFitting=1;fontFamily=Architects Daughter;fontSource=https%3A%2F%2Ffonts.googleapis.com%2Fcss%3Ffamily%3DArchitects%2BDaughter;fontSize=16;fillColor=#f8cecc;strokeColor=#b85450;" vertex="1" parent="1">
          <mxGeometry x="120" y="440" width="120" height="60" as="geometry" />
        </mxCell>
        <mxCell id="Pe54-ei3SecUxiNzrxK5-14" value="" style="edgeStyle=orthogonalEdgeStyle;rounded=0;sketch=1;hachureGap=4;jiggle=2;curveFitting=1;orthogonalLoop=1;jettySize=auto;html=1;fontFamily=Architects Daughter;fontSource=https%3A%2F%2Ffonts.googleapis.com%2Fcss%3Ffamily%3DArchitects%2BDaughter;fontSize=16;" edge="1" parent="1" source="Pe54-ei3SecUxiNzrxK5-6" target="Pe54-ei3SecUxiNzrxK5-13">
          <mxGeometry relative="1" as="geometry" />
        </mxCell>
        <mxCell id="WXDdFPdIhPbPJuZgfSkw-1" style="edgeStyle=orthogonalEdgeStyle;rounded=0;sketch=1;hachureGap=4;jiggle=2;curveFitting=1;orthogonalLoop=1;jettySize=auto;html=1;exitX=1;exitY=1;exitDx=0;exitDy=0;exitPerimeter=0;entryX=0;entryY=0.5;entryDx=0;entryDy=0;fontFamily=Architects Daughter;fontSource=https%3A%2F%2Ffonts.googleapis.com%2Fcss%3Ffamily%3DArchitects%2BDaughter;fontSize=16;" edge="1" parent="1" source="Pe54-ei3SecUxiNzrxK5-6" target="Pe54-ei3SecUxiNzrxK5-19">
          <mxGeometry relative="1" as="geometry" />
        </mxCell>
        <mxCell id="Pe54-ei3SecUxiNzrxK5-6" value="Actor" style="shape=umlActor;verticalLabelPosition=bottom;verticalAlign=top;html=1;outlineConnect=0;sketch=1;hachureGap=4;jiggle=2;curveFitting=1;fontFamily=Architects Daughter;fontSource=https%3A%2F%2Ffonts.googleapis.com%2Fcss%3Ffamily%3DArchitects%2BDaughter;fontSize=16;" vertex="1" parent="1">
          <mxGeometry x="360" y="440" width="30" height="60" as="geometry" />
        </mxCell>
        <mxCell id="Pe54-ei3SecUxiNzrxK5-10" value="" style="edgeStyle=orthogonalEdgeStyle;rounded=0;sketch=1;hachureGap=4;jiggle=2;curveFitting=1;orthogonalLoop=1;jettySize=auto;html=1;fontFamily=Architects Daughter;fontSource=https%3A%2F%2Ffonts.googleapis.com%2Fcss%3Ffamily%3DArchitects%2BDaughter;fontSize=16;" edge="1" parent="1" source="Pe54-ei3SecUxiNzrxK5-9" target="Pe54-ei3SecUxiNzrxK5-6">
          <mxGeometry relative="1" as="geometry" />
        </mxCell>
        <mxCell id="Pe54-ei3SecUxiNzrxK5-9" value="读书输入" style="rounded=0;whiteSpace=wrap;html=1;sketch=1;hachureGap=4;jiggle=2;curveFitting=1;fontFamily=Architects Daughter;fontSource=https%3A%2F%2Ffonts.googleapis.com%2Fcss%3Ffamily%3DArchitects%2BDaughter;fontSize=16;fillColor=#dae8fc;strokeColor=#6c8ebf;" vertex="1" parent="1">
          <mxGeometry x="315" y="270" width="120" height="60" as="geometry" />
        </mxCell>
        <mxCell id="Pe54-ei3SecUxiNzrxK5-16" value="" style="edgeStyle=orthogonalEdgeStyle;rounded=0;sketch=1;hachureGap=4;jiggle=2;curveFitting=1;orthogonalLoop=1;jettySize=auto;html=1;fontFamily=Architects Daughter;fontSource=https%3A%2F%2Ffonts.googleapis.com%2Fcss%3Ffamily%3DArchitects%2BDaughter;fontSize=16;" edge="1" parent="1" source="Pe54-ei3SecUxiNzrxK5-13" target="Pe54-ei3SecUxiNzrxK5-15">
          <mxGeometry relative="1" as="geometry" />
        </mxCell>
        <mxCell id="Pe54-ei3SecUxiNzrxK5-13" value="复盘内化" style="rounded=0;whiteSpace=wrap;html=1;sketch=1;hachureGap=4;jiggle=2;curveFitting=1;fontFamily=Architects Daughter;fontSource=https%3A%2F%2Ffonts.googleapis.com%2Fcss%3Ffamily%3DArchitects%2BDaughter;fontSize=16;fillColor=#fff2cc;strokeColor=#d6b656;" vertex="1" parent="1">
          <mxGeometry x="500" y="440" width="120" height="60" as="geometry" />
        </mxCell>
        <mxCell id="Pe54-ei3SecUxiNzrxK5-18" value="" style="edgeStyle=orthogonalEdgeStyle;rounded=0;sketch=1;hachureGap=4;jiggle=2;curveFitting=1;orthogonalLoop=1;jettySize=auto;html=1;fontFamily=Architects Daughter;fontSource=https%3A%2F%2Ffonts.googleapis.com%2Fcss%3Ffamily%3DArchitects%2BDaughter;fontSize=16;" edge="1" parent="1" source="Pe54-ei3SecUxiNzrxK5-15" target="Pe54-ei3SecUxiNzrxK5-17">
          <mxGeometry relative="1" as="geometry" />
        </mxCell>
        <mxCell id="Pe54-ei3SecUxiNzrxK5-15" value="产出解决方案" style="rounded=0;whiteSpace=wrap;html=1;sketch=1;hachureGap=4;jiggle=2;curveFitting=1;fontFamily=Architects Daughter;fontSource=https%3A%2F%2Ffonts.googleapis.com%2Fcss%3Ffamily%3DArchitects%2BDaughter;fontSize=16;fillColor=#fff2cc;strokeColor=#d6b656;" vertex="1" parent="1">
          <mxGeometry x="700" y="440" width="120" height="60" as="geometry" />
        </mxCell>
        <mxCell id="Pe54-ei3SecUxiNzrxK5-26" style="edgeStyle=orthogonalEdgeStyle;rounded=0;sketch=1;hachureGap=4;jiggle=2;curveFitting=1;orthogonalLoop=1;jettySize=auto;html=1;exitX=0.5;exitY=1;exitDx=0;exitDy=0;entryX=0.5;entryY=0;entryDx=0;entryDy=0;fontFamily=Architects Daughter;fontSource=https%3A%2F%2Ffonts.googleapis.com%2Fcss%3Ffamily%3DArchitects%2BDaughter;fontSize=16;" edge="1" parent="1" source="Pe54-ei3SecUxiNzrxK5-17" target="Pe54-ei3SecUxiNzrxK5-19">
          <mxGeometry relative="1" as="geometry" />
        </mxCell>
        <mxCell id="Pe54-ei3SecUxiNzrxK5-17" value="获得知识" style="rounded=0;whiteSpace=wrap;html=1;sketch=1;hachureGap=4;jiggle=2;curveFitting=1;fontFamily=Architects Daughter;fontSource=https%3A%2F%2Ffonts.googleapis.com%2Fcss%3Ffamily%3DArchitects%2BDaughter;fontSize=16;fillColor=#d5e8d4;strokeColor=#82b366;" vertex="1" parent="1">
          <mxGeometry x="900" y="440" width="120" height="60" as="geometry" />
        </mxCell>
        <mxCell id="Pe54-ei3SecUxiNzrxK5-28" value="" style="edgeStyle=orthogonalEdgeStyle;rounded=0;sketch=1;hachureGap=4;jiggle=2;curveFitting=1;orthogonalLoop=1;jettySize=auto;html=1;fontFamily=Architects Daughter;fontSource=https%3A%2F%2Ffonts.googleapis.com%2Fcss%3Ffamily%3DArchitects%2BDaughter;fontSize=16;" edge="1" parent="1" source="Pe54-ei3SecUxiNzrxK5-19" target="Pe54-ei3SecUxiNzrxK5-27">
          <mxGeometry relative="1" as="geometry" />
        </mxCell>
        <mxCell id="Pe54-ei3SecUxiNzrxK5-19" value="同类问题" style="rounded=0;whiteSpace=wrap;html=1;sketch=1;hachureGap=4;jiggle=2;curveFitting=1;fontFamily=Architects Daughter;fontSource=https%3A%2F%2Ffonts.googleapis.com%2Fcss%3Ffamily%3DArchitects%2BDaughter;fontSize=16;fillColor=#f8cecc;strokeColor=#b85450;" vertex="1" parent="1">
          <mxGeometry x="900" y="620" width="120" height="60" as="geometry" />
        </mxCell>
        <mxCell id="Pe54-ei3SecUxiNzrxK5-27" value="快速解决" style="rounded=0;whiteSpace=wrap;html=1;sketch=1;hachureGap=4;jiggle=2;curveFitting=1;fontFamily=Architects Daughter;fontSource=https%3A%2F%2Ffonts.googleapis.com%2Fcss%3Ffamily%3DArchitects%2BDaughter;fontSize=16;fillColor=#d5e8d4;strokeColor=#82b366;" vertex="1" parent="1">
          <mxGeometry x="1100" y="620" width="120" height="60" as="geometry" />
        </mxCell>
      </root>
    </mxGraphModel>
  </diagram>
  <diagram id="CU1BWXPVmH4SWm0eTEdO" name="第 2 页">
    <mxGraphModel dx="2375" dy="902" grid="1" gridSize="10" guides="1" tooltips="1" connect="1" arrows="1" fold="1" page="1" pageScale="1" pageWidth="827" pageHeight="1169" math="0" shadow="0">
      <root>
        <mxCell id="0" />
        <mxCell id="1" parent="0" />
        <mxCell id="wrbjPS9F9tJvXKb96vfS-11" value="" style="edgeStyle=orthogonalEdgeStyle;rounded=0;sketch=1;hachureGap=4;jiggle=2;curveFitting=1;orthogonalLoop=1;jettySize=auto;html=1;fontFamily=Architects Daughter;fontSource=https%3A%2F%2Ffonts.googleapis.com%2Fcss%3Ffamily%3DArchitects%2BDaughter;fontSize=16;fillColor=#ffe6cc;strokeColor=#d79b00;" edge="1" parent="1" source="wrbjPS9F9tJvXKb96vfS-1" target="wrbjPS9F9tJvXKb96vfS-10">
          <mxGeometry relative="1" as="geometry" />
        </mxCell>
        <mxCell id="wrbjPS9F9tJvXKb96vfS-1" value="选喜欢的书籍阅读" style="rounded=0;whiteSpace=wrap;html=1;sketch=1;hachureGap=4;jiggle=2;curveFitting=1;fontFamily=Architects Daughter;fontSource=https%3A%2F%2Ffonts.googleapis.com%2Fcss%3Ffamily%3DArchitects%2BDaughter;fontSize=16;fillColor=#ffe6cc;strokeColor=#d79b00;" vertex="1" parent="1">
          <mxGeometry x="150" y="390" width="120" height="60" as="geometry" />
        </mxCell>
        <mxCell id="wrbjPS9F9tJvXKb96vfS-4" style="rounded=0;sketch=1;hachureGap=4;jiggle=2;curveFitting=1;orthogonalLoop=1;jettySize=auto;html=1;exitX=0;exitY=1;exitDx=0;exitDy=0;exitPerimeter=0;fontFamily=Architects Daughter;fontSource=https%3A%2F%2Ffonts.googleapis.com%2Fcss%3Ffamily%3DArchitects%2BDaughter;fontSize=16;fillColor=#f5f5f5;strokeColor=#666666;" edge="1" parent="1" source="wrbjPS9F9tJvXKb96vfS-2" target="wrbjPS9F9tJvXKb96vfS-1">
          <mxGeometry relative="1" as="geometry" />
        </mxCell>
        <mxCell id="wrbjPS9F9tJvXKb96vfS-15" style="rounded=0;sketch=1;hachureGap=4;jiggle=2;curveFitting=1;orthogonalLoop=1;jettySize=auto;html=1;exitX=1;exitY=1;exitDx=0;exitDy=0;exitPerimeter=0;fontFamily=Architects Daughter;fontSource=https%3A%2F%2Ffonts.googleapis.com%2Fcss%3Ffamily%3DArchitects%2BDaughter;fontSize=16;fillColor=#f5f5f5;strokeColor=#666666;" edge="1" parent="1" source="wrbjPS9F9tJvXKb96vfS-2" target="wrbjPS9F9tJvXKb96vfS-5">
          <mxGeometry relative="1" as="geometry" />
        </mxCell>
        <mxCell id="wrbjPS9F9tJvXKb96vfS-2" value="Actor" style="shape=umlActor;verticalLabelPosition=bottom;verticalAlign=top;html=1;outlineConnect=0;sketch=1;hachureGap=4;jiggle=2;curveFitting=1;fontFamily=Architects Daughter;fontSource=https%3A%2F%2Ffonts.googleapis.com%2Fcss%3Ffamily%3DArchitects%2BDaughter;fontSize=16;fillColor=#f5f5f5;fontColor=#333333;strokeColor=#666666;" vertex="1" parent="1">
          <mxGeometry x="399" y="220" width="30" height="60" as="geometry" />
        </mxCell>
        <mxCell id="wrbjPS9F9tJvXKb96vfS-7" value="" style="edgeStyle=orthogonalEdgeStyle;rounded=0;sketch=1;hachureGap=4;jiggle=2;curveFitting=1;orthogonalLoop=1;jettySize=auto;html=1;fontFamily=Architects Daughter;fontSource=https%3A%2F%2Ffonts.googleapis.com%2Fcss%3Ffamily%3DArchitects%2BDaughter;fontSize=16;fillColor=#fff2cc;strokeColor=#d6b656;" edge="1" parent="1" source="wrbjPS9F9tJvXKb96vfS-5" target="wrbjPS9F9tJvXKb96vfS-6">
          <mxGeometry relative="1" as="geometry" />
        </mxCell>
        <mxCell id="wrbjPS9F9tJvXKb96vfS-5" value="实际工作" style="rounded=0;whiteSpace=wrap;html=1;sketch=1;hachureGap=4;jiggle=2;curveFitting=1;fontFamily=Architects Daughter;fontSource=https%3A%2F%2Ffonts.googleapis.com%2Fcss%3Ffamily%3DArchitects%2BDaughter;fontSize=16;fillColor=#fff2cc;strokeColor=#d6b656;" vertex="1" parent="1">
          <mxGeometry x="520" y="390" width="120" height="60" as="geometry" />
        </mxCell>
        <mxCell id="wrbjPS9F9tJvXKb96vfS-9" value="" style="edgeStyle=orthogonalEdgeStyle;rounded=0;sketch=1;hachureGap=4;jiggle=2;curveFitting=1;orthogonalLoop=1;jettySize=auto;html=1;fontFamily=Architects Daughter;fontSource=https%3A%2F%2Ffonts.googleapis.com%2Fcss%3Ffamily%3DArchitects%2BDaughter;fontSize=16;fillColor=#fff2cc;strokeColor=#d6b656;" edge="1" parent="1" source="wrbjPS9F9tJvXKb96vfS-6" target="wrbjPS9F9tJvXKb96vfS-8">
          <mxGeometry relative="1" as="geometry" />
        </mxCell>
        <mxCell id="wrbjPS9F9tJvXKb96vfS-6" value="遇到问题" style="rounded=0;whiteSpace=wrap;html=1;sketch=1;hachureGap=4;jiggle=2;curveFitting=1;fontFamily=Architects Daughter;fontSource=https%3A%2F%2Ffonts.googleapis.com%2Fcss%3Ffamily%3DArchitects%2BDaughter;fontSize=16;fillColor=#fff2cc;strokeColor=#d6b656;" vertex="1" parent="1">
          <mxGeometry x="520" y="530" width="120" height="60" as="geometry" />
        </mxCell>
        <mxCell id="wrbjPS9F9tJvXKb96vfS-17" style="rounded=0;sketch=1;hachureGap=4;jiggle=2;curveFitting=1;orthogonalLoop=1;jettySize=auto;html=1;exitX=0.5;exitY=1;exitDx=0;exitDy=0;fontFamily=Architects Daughter;fontSource=https%3A%2F%2Ffonts.googleapis.com%2Fcss%3Ffamily%3DArchitects%2BDaughter;fontSize=16;fillColor=#d5e8d4;strokeColor=#82b366;" edge="1" parent="1" source="wrbjPS9F9tJvXKb96vfS-8" target="wrbjPS9F9tJvXKb96vfS-14">
          <mxGeometry relative="1" as="geometry" />
        </mxCell>
        <mxCell id="wrbjPS9F9tJvXKb96vfS-8" value="解决问题" style="rounded=0;whiteSpace=wrap;html=1;sketch=1;hachureGap=4;jiggle=2;curveFitting=1;fontFamily=Architects Daughter;fontSource=https%3A%2F%2Ffonts.googleapis.com%2Fcss%3Ffamily%3DArchitects%2BDaughter;fontSize=16;fillColor=#fff2cc;strokeColor=#d6b656;" vertex="1" parent="1">
          <mxGeometry x="520" y="670" width="120" height="60" as="geometry" />
        </mxCell>
        <mxCell id="wrbjPS9F9tJvXKb96vfS-16" style="rounded=0;sketch=1;hachureGap=4;jiggle=2;curveFitting=1;orthogonalLoop=1;jettySize=auto;html=1;exitX=0.5;exitY=1;exitDx=0;exitDy=0;entryX=0.5;entryY=0;entryDx=0;entryDy=0;fontFamily=Architects Daughter;fontSource=https%3A%2F%2Ffonts.googleapis.com%2Fcss%3Ffamily%3DArchitects%2BDaughter;fontSize=16;fillColor=#d5e8d4;strokeColor=#82b366;" edge="1" parent="1" source="wrbjPS9F9tJvXKb96vfS-10" target="wrbjPS9F9tJvXKb96vfS-14">
          <mxGeometry relative="1" as="geometry" />
        </mxCell>
        <mxCell id="wrbjPS9F9tJvXKb96vfS-10" value="获取书中内容" style="rounded=0;whiteSpace=wrap;html=1;sketch=1;hachureGap=4;jiggle=2;curveFitting=1;fontFamily=Architects Daughter;fontSource=https%3A%2F%2Ffonts.googleapis.com%2Fcss%3Ffamily%3DArchitects%2BDaughter;fontSize=16;fillColor=#ffe6cc;strokeColor=#d79b00;" vertex="1" parent="1">
          <mxGeometry x="150" y="530" width="120" height="60" as="geometry" />
        </mxCell>
        <mxCell id="wrbjPS9F9tJvXKb96vfS-18" style="edgeStyle=orthogonalEdgeStyle;sketch=1;hachureGap=4;jiggle=2;curveFitting=1;orthogonalLoop=1;jettySize=auto;html=1;exitX=0.5;exitY=1;exitDx=0;exitDy=0;entryX=1;entryY=0.5;entryDx=0;entryDy=0;fontFamily=Architects Daughter;fontSource=https%3A%2F%2Ffonts.googleapis.com%2Fcss%3Ffamily%3DArchitects%2BDaughter;fontSize=16;curved=1;fillColor=#d5e8d4;strokeColor=#82b366;" edge="1" parent="1" source="wrbjPS9F9tJvXKb96vfS-22" target="wrbjPS9F9tJvXKb96vfS-8">
          <mxGeometry relative="1" as="geometry">
            <Array as="points">
              <mxPoint x="380" y="1080" />
              <mxPoint x="770" y="1080" />
              <mxPoint x="770" y="700" />
            </Array>
          </mxGeometry>
        </mxCell>
        <mxCell id="wrbjPS9F9tJvXKb96vfS-19" value="提效" style="edgeLabel;html=1;align=center;verticalAlign=middle;resizable=0;points=[];fontSize=16;fontFamily=Architects Daughter;" vertex="1" connectable="0" parent="wrbjPS9F9tJvXKb96vfS-18">
          <mxGeometry x="0.1843" y="10" relative="1" as="geometry">
            <mxPoint as="offset" />
          </mxGeometry>
        </mxCell>
        <mxCell id="wrbjPS9F9tJvXKb96vfS-20" style="edgeStyle=orthogonalEdgeStyle;sketch=1;hachureGap=4;jiggle=2;curveFitting=1;orthogonalLoop=1;jettySize=auto;html=1;exitX=0.5;exitY=1;exitDx=0;exitDy=0;entryX=0;entryY=0.5;entryDx=0;entryDy=0;fontFamily=Architects Daughter;fontSource=https%3A%2F%2Ffonts.googleapis.com%2Fcss%3Ffamily%3DArchitects%2BDaughter;fontSize=16;curved=1;fillColor=#d5e8d4;strokeColor=#82b366;" edge="1" parent="1" source="wrbjPS9F9tJvXKb96vfS-22" target="wrbjPS9F9tJvXKb96vfS-1">
          <mxGeometry relative="1" as="geometry">
            <Array as="points">
              <mxPoint x="380" y="1090" />
              <mxPoint x="80" y="1090" />
              <mxPoint x="80" y="420" />
            </Array>
          </mxGeometry>
        </mxCell>
        <mxCell id="wrbjPS9F9tJvXKb96vfS-21" value="固化知识&lt;br style=&quot;font-size: 16px;&quot;&gt;并拓展知识面帮助选择新的书籍&lt;br&gt;帮助我们有更多读书的见解" style="edgeLabel;html=1;align=center;verticalAlign=middle;resizable=0;points=[];fontSize=16;fontFamily=Architects Daughter;" vertex="1" connectable="0" parent="wrbjPS9F9tJvXKb96vfS-20">
          <mxGeometry x="-0.0073" y="-19" relative="1" as="geometry">
            <mxPoint as="offset" />
          </mxGeometry>
        </mxCell>
        <mxCell id="wrbjPS9F9tJvXKb96vfS-23" value="" style="edgeStyle=orthogonalEdgeStyle;rounded=0;sketch=1;hachureGap=4;jiggle=2;curveFitting=1;orthogonalLoop=1;jettySize=auto;html=1;fontFamily=Architects Daughter;fontSource=https%3A%2F%2Ffonts.googleapis.com%2Fcss%3Ffamily%3DArchitects%2BDaughter;fontSize=16;" edge="1" parent="1" source="wrbjPS9F9tJvXKb96vfS-14" target="wrbjPS9F9tJvXKb96vfS-22">
          <mxGeometry relative="1" as="geometry" />
        </mxCell>
        <mxCell id="wrbjPS9F9tJvXKb96vfS-14" value="复盘" style="rounded=0;whiteSpace=wrap;html=1;sketch=1;hachureGap=4;jiggle=2;curveFitting=1;fontFamily=Architects Daughter;fontSource=https%3A%2F%2Ffonts.googleapis.com%2Fcss%3Ffamily%3DArchitects%2BDaughter;fontSize=16;fillColor=#d5e8d4;strokeColor=#82b366;" vertex="1" parent="1">
          <mxGeometry x="320" y="800" width="120" height="60" as="geometry" />
        </mxCell>
        <mxCell id="wrbjPS9F9tJvXKb96vfS-22" value="知识" style="rounded=0;whiteSpace=wrap;html=1;sketch=1;hachureGap=4;jiggle=2;curveFitting=1;fontFamily=Architects Daughter;fontSource=https%3A%2F%2Ffonts.googleapis.com%2Fcss%3Ffamily%3DArchitects%2BDaughter;fontSize=16;fillColor=#d5e8d4;strokeColor=#82b366;" vertex="1" parent="1">
          <mxGeometry x="320" y="940" width="120" height="60" as="geometry" />
        </mxCell>
      </root>
    </mxGraphModel>
  </diagram>
  <diagram id="cdbDIKeOHl0frjKpVc43" name="第 3 页">
    <mxGraphModel dx="2815" dy="1640" grid="1" gridSize="10" guides="1" tooltips="1" connect="1" arrows="1" fold="1" page="1" pageScale="1" pageWidth="827" pageHeight="1169" math="0" shadow="0">
      <root>
        <mxCell id="0" />
        <mxCell id="1" parent="0" />
        <mxCell id="sGpYwbn9yWWsdyCqq6tq-47" value="" style="rounded=0;whiteSpace=wrap;html=1;sketch=1;hachureGap=4;jiggle=2;curveFitting=1;fontFamily=Architects Daughter;fontSource=https%3A%2F%2Ffonts.googleapis.com%2Fcss%3Ffamily%3DArchitects%2BDaughter;fontSize=20;" vertex="1" parent="1">
          <mxGeometry x="100" y="130" width="1700" height="580" as="geometry" />
        </mxCell>
        <mxCell id="sGpYwbn9yWWsdyCqq6tq-6" style="rounded=0;sketch=1;hachureGap=4;jiggle=2;curveFitting=1;orthogonalLoop=1;jettySize=auto;html=1;exitX=1;exitY=0.5;exitDx=0;exitDy=0;entryX=0;entryY=0.5;entryDx=0;entryDy=0;fontFamily=Architects Daughter;fontSource=https%3A%2F%2Ffonts.googleapis.com%2Fcss%3Ffamily%3DArchitects%2BDaughter;fontSize=16;fillColor=#fff2cc;strokeColor=#d6b656;" edge="1" parent="1" source="sGpYwbn9yWWsdyCqq6tq-1" target="sGpYwbn9yWWsdyCqq6tq-3">
          <mxGeometry relative="1" as="geometry" />
        </mxCell>
        <mxCell id="sGpYwbn9yWWsdyCqq6tq-7" style="rounded=0;sketch=1;hachureGap=4;jiggle=2;curveFitting=1;orthogonalLoop=1;jettySize=auto;html=1;exitX=1;exitY=0.5;exitDx=0;exitDy=0;entryX=0;entryY=0.5;entryDx=0;entryDy=0;fontFamily=Architects Daughter;fontSource=https%3A%2F%2Ffonts.googleapis.com%2Fcss%3Ffamily%3DArchitects%2BDaughter;fontSize=16;fillColor=#fff2cc;strokeColor=#d6b656;" edge="1" parent="1" source="sGpYwbn9yWWsdyCqq6tq-1" target="sGpYwbn9yWWsdyCqq6tq-2">
          <mxGeometry relative="1" as="geometry" />
        </mxCell>
        <mxCell id="sGpYwbn9yWWsdyCqq6tq-8" style="rounded=0;sketch=1;hachureGap=4;jiggle=2;curveFitting=1;orthogonalLoop=1;jettySize=auto;html=1;exitX=1;exitY=0.5;exitDx=0;exitDy=0;entryX=0;entryY=0.5;entryDx=0;entryDy=0;fontFamily=Architects Daughter;fontSource=https%3A%2F%2Ffonts.googleapis.com%2Fcss%3Ffamily%3DArchitects%2BDaughter;fontSize=16;fillColor=#fff2cc;strokeColor=#d6b656;" edge="1" parent="1" source="sGpYwbn9yWWsdyCqq6tq-1" target="sGpYwbn9yWWsdyCqq6tq-4">
          <mxGeometry relative="1" as="geometry" />
        </mxCell>
        <mxCell id="sGpYwbn9yWWsdyCqq6tq-9" style="rounded=0;sketch=1;hachureGap=4;jiggle=2;curveFitting=1;orthogonalLoop=1;jettySize=auto;html=1;exitX=1;exitY=0.5;exitDx=0;exitDy=0;entryX=0;entryY=0.5;entryDx=0;entryDy=0;fontFamily=Architects Daughter;fontSource=https%3A%2F%2Ffonts.googleapis.com%2Fcss%3Ffamily%3DArchitects%2BDaughter;fontSize=16;fillColor=#fff2cc;strokeColor=#d6b656;" edge="1" parent="1" source="sGpYwbn9yWWsdyCqq6tq-1" target="sGpYwbn9yWWsdyCqq6tq-5">
          <mxGeometry relative="1" as="geometry" />
        </mxCell>
        <mxCell id="sGpYwbn9yWWsdyCqq6tq-1" value="优秀人物&lt;br&gt;学习内容&lt;br&gt;如查理芒格、纳瓦尔宝典" style="rounded=0;whiteSpace=wrap;html=1;sketch=1;hachureGap=4;jiggle=2;curveFitting=1;fontFamily=Architects Daughter;fontSource=https%3A%2F%2Ffonts.googleapis.com%2Fcss%3Ffamily%3DArchitects%2BDaughter;fontSize=16;fillColor=#fff2cc;strokeColor=#d6b656;" vertex="1" parent="1">
          <mxGeometry x="340" y="420" width="194" height="80" as="geometry" />
        </mxCell>
        <mxCell id="sGpYwbn9yWWsdyCqq6tq-36" style="rounded=0;sketch=1;hachureGap=4;jiggle=2;curveFitting=1;orthogonalLoop=1;jettySize=auto;html=1;exitX=1;exitY=0.5;exitDx=0;exitDy=0;fontFamily=Architects Daughter;fontSource=https%3A%2F%2Ffonts.googleapis.com%2Fcss%3Ffamily%3DArchitects%2BDaughter;fontSize=16;fillColor=#fff2cc;strokeColor=#d6b656;" edge="1" parent="1" source="sGpYwbn9yWWsdyCqq6tq-2" target="sGpYwbn9yWWsdyCqq6tq-10">
          <mxGeometry relative="1" as="geometry" />
        </mxCell>
        <mxCell id="sGpYwbn9yWWsdyCqq6tq-2" value="物理学" style="rounded=0;whiteSpace=wrap;html=1;sketch=1;hachureGap=4;jiggle=2;curveFitting=1;fontFamily=Architects Daughter;fontSource=https%3A%2F%2Ffonts.googleapis.com%2Fcss%3Ffamily%3DArchitects%2BDaughter;fontSize=16;fillColor=#fff2cc;strokeColor=#d6b656;" vertex="1" parent="1">
          <mxGeometry x="700" y="367" width="120" height="60" as="geometry" />
        </mxCell>
        <mxCell id="sGpYwbn9yWWsdyCqq6tq-35" style="rounded=0;sketch=1;hachureGap=4;jiggle=2;curveFitting=1;orthogonalLoop=1;jettySize=auto;html=1;exitX=1;exitY=0.5;exitDx=0;exitDy=0;entryX=0;entryY=0.5;entryDx=0;entryDy=0;fontFamily=Architects Daughter;fontSource=https%3A%2F%2Ffonts.googleapis.com%2Fcss%3Ffamily%3DArchitects%2BDaughter;fontSize=16;fillColor=#fff2cc;strokeColor=#d6b656;" edge="1" parent="1" source="sGpYwbn9yWWsdyCqq6tq-3" target="sGpYwbn9yWWsdyCqq6tq-10">
          <mxGeometry relative="1" as="geometry" />
        </mxCell>
        <mxCell id="sGpYwbn9yWWsdyCqq6tq-3" value="心理学" style="rounded=0;whiteSpace=wrap;html=1;sketch=1;hachureGap=4;jiggle=2;curveFitting=1;fontFamily=Architects Daughter;fontSource=https%3A%2F%2Ffonts.googleapis.com%2Fcss%3Ffamily%3DArchitects%2BDaughter;fontSize=16;fillColor=#fff2cc;strokeColor=#d6b656;" vertex="1" parent="1">
          <mxGeometry x="700" y="240" width="120" height="60" as="geometry" />
        </mxCell>
        <mxCell id="sGpYwbn9yWWsdyCqq6tq-38" style="rounded=0;sketch=1;hachureGap=4;jiggle=2;curveFitting=1;orthogonalLoop=1;jettySize=auto;html=1;exitX=1;exitY=0.5;exitDx=0;exitDy=0;entryX=0;entryY=0.5;entryDx=0;entryDy=0;fontFamily=Architects Daughter;fontSource=https%3A%2F%2Ffonts.googleapis.com%2Fcss%3Ffamily%3DArchitects%2BDaughter;fontSize=16;fillColor=#fff2cc;strokeColor=#d6b656;" edge="1" parent="1" source="sGpYwbn9yWWsdyCqq6tq-4" target="sGpYwbn9yWWsdyCqq6tq-10">
          <mxGeometry relative="1" as="geometry" />
        </mxCell>
        <mxCell id="sGpYwbn9yWWsdyCqq6tq-4" value="概率学" style="rounded=0;whiteSpace=wrap;html=1;sketch=1;hachureGap=4;jiggle=2;curveFitting=1;fontFamily=Architects Daughter;fontSource=https%3A%2F%2Ffonts.googleapis.com%2Fcss%3Ffamily%3DArchitects%2BDaughter;fontSize=16;fillColor=#fff2cc;strokeColor=#d6b656;" vertex="1" parent="1">
          <mxGeometry x="700" y="493" width="120" height="60" as="geometry" />
        </mxCell>
        <mxCell id="sGpYwbn9yWWsdyCqq6tq-40" style="rounded=0;sketch=1;hachureGap=4;jiggle=2;curveFitting=1;orthogonalLoop=1;jettySize=auto;html=1;exitX=1;exitY=0.5;exitDx=0;exitDy=0;entryX=0;entryY=0.5;entryDx=0;entryDy=0;fontFamily=Architects Daughter;fontSource=https%3A%2F%2Ffonts.googleapis.com%2Fcss%3Ffamily%3DArchitects%2BDaughter;fontSize=16;fillColor=#fff2cc;strokeColor=#d6b656;" edge="1" parent="1" source="sGpYwbn9yWWsdyCqq6tq-5" target="sGpYwbn9yWWsdyCqq6tq-10">
          <mxGeometry relative="1" as="geometry" />
        </mxCell>
        <mxCell id="sGpYwbn9yWWsdyCqq6tq-5" value="计算机工程" style="rounded=0;whiteSpace=wrap;html=1;sketch=1;hachureGap=4;jiggle=2;curveFitting=1;fontFamily=Architects Daughter;fontSource=https%3A%2F%2Ffonts.googleapis.com%2Fcss%3Ffamily%3DArchitects%2BDaughter;fontSize=16;fillColor=#fff2cc;strokeColor=#d6b656;" vertex="1" parent="1">
          <mxGeometry x="700" y="620" width="120" height="60" as="geometry" />
        </mxCell>
        <mxCell id="sGpYwbn9yWWsdyCqq6tq-21" style="rounded=0;sketch=1;hachureGap=4;jiggle=2;curveFitting=1;orthogonalLoop=1;jettySize=auto;html=1;exitX=1;exitY=0.5;exitDx=0;exitDy=0;fontFamily=Architects Daughter;fontSource=https%3A%2F%2Ffonts.googleapis.com%2Fcss%3Ffamily%3DArchitects%2BDaughter;fontSize=16;fillColor=#ffe6cc;strokeColor=#d79b00;" edge="1" parent="1" source="sGpYwbn9yWWsdyCqq6tq-10" target="sGpYwbn9yWWsdyCqq6tq-20">
          <mxGeometry relative="1" as="geometry" />
        </mxCell>
        <mxCell id="sGpYwbn9yWWsdyCqq6tq-29" style="rounded=0;sketch=1;hachureGap=4;jiggle=2;curveFitting=1;orthogonalLoop=1;jettySize=auto;html=1;exitX=1;exitY=0.5;exitDx=0;exitDy=0;entryX=0;entryY=0.5;entryDx=0;entryDy=0;fontFamily=Architects Daughter;fontSource=https%3A%2F%2Ffonts.googleapis.com%2Fcss%3Ffamily%3DArchitects%2BDaughter;fontSize=16;fillColor=#ffe6cc;strokeColor=#d79b00;" edge="1" parent="1" source="sGpYwbn9yWWsdyCqq6tq-10" target="sGpYwbn9yWWsdyCqq6tq-23">
          <mxGeometry relative="1" as="geometry" />
        </mxCell>
        <mxCell id="sGpYwbn9yWWsdyCqq6tq-10" value="豆瓣筛选&lt;br&gt;优秀书籍" style="rounded=0;whiteSpace=wrap;html=1;sketch=1;hachureGap=4;jiggle=2;curveFitting=1;fontFamily=Architects Daughter;fontSource=https%3A%2F%2Ffonts.googleapis.com%2Fcss%3Ffamily%3DArchitects%2BDaughter;fontSize=16;fillColor=#ffe6cc;strokeColor=#d79b00;" vertex="1" parent="1">
          <mxGeometry x="960" y="410" width="120" height="60" as="geometry" />
        </mxCell>
        <mxCell id="sGpYwbn9yWWsdyCqq6tq-12" style="rounded=0;sketch=1;hachureGap=4;jiggle=2;curveFitting=1;orthogonalLoop=1;jettySize=auto;html=1;exitX=1;exitY=0.5;exitDx=0;exitDy=0;fontFamily=Architects Daughter;fontSource=https%3A%2F%2Ffonts.googleapis.com%2Fcss%3Ffamily%3DArchitects%2BDaughter;fontSize=16;" edge="1" parent="1" source="sGpYwbn9yWWsdyCqq6tq-11" target="sGpYwbn9yWWsdyCqq6tq-1">
          <mxGeometry relative="1" as="geometry" />
        </mxCell>
        <mxCell id="sGpYwbn9yWWsdyCqq6tq-11" value="" style="ellipse;whiteSpace=wrap;html=1;aspect=fixed;sketch=1;hachureGap=4;jiggle=2;curveFitting=1;fontFamily=Architects Daughter;fontSource=https%3A%2F%2Ffonts.googleapis.com%2Fcss%3Ffamily%3DArchitects%2BDaughter;fontSize=20;fillColor=#d5e8d4;strokeColor=#82b366;" vertex="1" parent="1">
          <mxGeometry x="160" y="445" width="30" height="30" as="geometry" />
        </mxCell>
        <mxCell id="sGpYwbn9yWWsdyCqq6tq-30" value="" style="edgeStyle=orthogonalEdgeStyle;rounded=0;sketch=1;hachureGap=4;jiggle=2;curveFitting=1;orthogonalLoop=1;jettySize=auto;html=1;fontFamily=Architects Daughter;fontSource=https%3A%2F%2Ffonts.googleapis.com%2Fcss%3Ffamily%3DArchitects%2BDaughter;fontSize=16;fillColor=#dae8fc;strokeColor=#6c8ebf;" edge="1" parent="1" source="sGpYwbn9yWWsdyCqq6tq-16" target="sGpYwbn9yWWsdyCqq6tq-17">
          <mxGeometry relative="1" as="geometry" />
        </mxCell>
        <mxCell id="sGpYwbn9yWWsdyCqq6tq-16" value="提出问题" style="rounded=0;whiteSpace=wrap;html=1;sketch=1;hachureGap=4;jiggle=2;curveFitting=1;fontFamily=Architects Daughter;fontSource=https%3A%2F%2Ffonts.googleapis.com%2Fcss%3Ffamily%3DArchitects%2BDaughter;fontSize=16;fillColor=#dae8fc;strokeColor=#6c8ebf;" vertex="1" parent="1">
          <mxGeometry x="900" y="910" width="120" height="60" as="geometry" />
        </mxCell>
        <mxCell id="sGpYwbn9yWWsdyCqq6tq-32" value="" style="edgeStyle=orthogonalEdgeStyle;rounded=0;sketch=1;hachureGap=4;jiggle=2;curveFitting=1;orthogonalLoop=1;jettySize=auto;html=1;fontFamily=Architects Daughter;fontSource=https%3A%2F%2Ffonts.googleapis.com%2Fcss%3Ffamily%3DArchitects%2BDaughter;fontSize=16;fillColor=#dae8fc;strokeColor=#6c8ebf;" edge="1" parent="1" source="sGpYwbn9yWWsdyCqq6tq-17" target="sGpYwbn9yWWsdyCqq6tq-19">
          <mxGeometry relative="1" as="geometry" />
        </mxCell>
        <mxCell id="sGpYwbn9yWWsdyCqq6tq-17" value="结合阅读内容" style="rounded=0;whiteSpace=wrap;html=1;sketch=1;hachureGap=4;jiggle=2;curveFitting=1;fontFamily=Architects Daughter;fontSource=https%3A%2F%2Ffonts.googleapis.com%2Fcss%3Ffamily%3DArchitects%2BDaughter;fontSize=16;fillColor=#dae8fc;strokeColor=#6c8ebf;" vertex="1" parent="1">
          <mxGeometry x="900" y="1030" width="120" height="60" as="geometry" />
        </mxCell>
        <mxCell id="sGpYwbn9yWWsdyCqq6tq-18" value="提炼自己的思维模型" style="rounded=0;whiteSpace=wrap;html=1;sketch=1;hachureGap=4;jiggle=2;curveFitting=1;fontFamily=Architects Daughter;fontSource=https%3A%2F%2Ffonts.googleapis.com%2Fcss%3Ffamily%3DArchitects%2BDaughter;fontSize=16;fillColor=#dae8fc;strokeColor=#6c8ebf;" vertex="1" parent="1">
          <mxGeometry x="900" y="1310" width="120" height="60" as="geometry" />
        </mxCell>
        <mxCell id="sGpYwbn9yWWsdyCqq6tq-33" value="" style="edgeStyle=orthogonalEdgeStyle;rounded=0;sketch=1;hachureGap=4;jiggle=2;curveFitting=1;orthogonalLoop=1;jettySize=auto;html=1;fontFamily=Architects Daughter;fontSource=https%3A%2F%2Ffonts.googleapis.com%2Fcss%3Ffamily%3DArchitects%2BDaughter;fontSize=16;fillColor=#dae8fc;strokeColor=#6c8ebf;" edge="1" parent="1" source="sGpYwbn9yWWsdyCqq6tq-19" target="sGpYwbn9yWWsdyCqq6tq-18">
          <mxGeometry relative="1" as="geometry" />
        </mxCell>
        <mxCell id="sGpYwbn9yWWsdyCqq6tq-19" value="改变行动" style="rounded=0;whiteSpace=wrap;html=1;sketch=1;hachureGap=4;jiggle=2;curveFitting=1;fontFamily=Architects Daughter;fontSource=https%3A%2F%2Ffonts.googleapis.com%2Fcss%3Ffamily%3DArchitects%2BDaughter;fontSize=16;fillColor=#dae8fc;strokeColor=#6c8ebf;" vertex="1" parent="1">
          <mxGeometry x="900" y="1170" width="120" height="60" as="geometry" />
        </mxCell>
        <mxCell id="sGpYwbn9yWWsdyCqq6tq-41" style="rounded=0;sketch=1;hachureGap=4;jiggle=2;curveFitting=1;orthogonalLoop=1;jettySize=auto;html=1;exitX=1;exitY=0.5;exitDx=0;exitDy=0;entryX=0;entryY=0.5;entryDx=0;entryDy=0;fontFamily=Architects Daughter;fontSource=https%3A%2F%2Ffonts.googleapis.com%2Fcss%3Ffamily%3DArchitects%2BDaughter;fontSize=16;fillColor=#d5e8d4;strokeColor=#82b366;" edge="1" parent="1" source="sGpYwbn9yWWsdyCqq6tq-20" target="sGpYwbn9yWWsdyCqq6tq-24">
          <mxGeometry relative="1" as="geometry" />
        </mxCell>
        <mxCell id="sGpYwbn9yWWsdyCqq6tq-20" value="通识类" style="rounded=0;whiteSpace=wrap;html=1;sketch=1;hachureGap=4;jiggle=2;curveFitting=1;fontFamily=Architects Daughter;fontSource=https%3A%2F%2Ffonts.googleapis.com%2Fcss%3Ffamily%3DArchitects%2BDaughter;fontSize=16;fillColor=#ffe6cc;strokeColor=#d79b00;" vertex="1" parent="1">
          <mxGeometry x="1210" y="350" width="120" height="60" as="geometry" />
        </mxCell>
        <mxCell id="sGpYwbn9yWWsdyCqq6tq-42" style="rounded=0;sketch=1;hachureGap=4;jiggle=2;curveFitting=1;orthogonalLoop=1;jettySize=auto;html=1;exitX=1;exitY=0.5;exitDx=0;exitDy=0;fontFamily=Architects Daughter;fontSource=https%3A%2F%2Ffonts.googleapis.com%2Fcss%3Ffamily%3DArchitects%2BDaughter;fontSize=16;fillColor=#d5e8d4;strokeColor=#82b366;" edge="1" parent="1" source="sGpYwbn9yWWsdyCqq6tq-23" target="sGpYwbn9yWWsdyCqq6tq-24">
          <mxGeometry relative="1" as="geometry" />
        </mxCell>
        <mxCell id="sGpYwbn9yWWsdyCqq6tq-23" value="感兴趣&lt;br&gt;优秀书籍" style="rounded=0;whiteSpace=wrap;html=1;sketch=1;hachureGap=4;jiggle=2;curveFitting=1;fontFamily=Architects Daughter;fontSource=https%3A%2F%2Ffonts.googleapis.com%2Fcss%3Ffamily%3DArchitects%2BDaughter;fontSize=16;fillColor=#ffe6cc;strokeColor=#d79b00;" vertex="1" parent="1">
          <mxGeometry x="1210" y="470" width="120" height="60" as="geometry" />
        </mxCell>
        <mxCell id="sGpYwbn9yWWsdyCqq6tq-24" value="随机看前言选感兴趣的阅读" style="rounded=0;whiteSpace=wrap;html=1;sketch=1;hachureGap=4;jiggle=2;curveFitting=1;fontFamily=Architects Daughter;fontSource=https%3A%2F%2Ffonts.googleapis.com%2Fcss%3Ffamily%3DArchitects%2BDaughter;fontSize=16;fillColor=#d5e8d4;strokeColor=#82b366;" vertex="1" parent="1">
          <mxGeometry x="1500" y="410" width="120" height="60" as="geometry" />
        </mxCell>
        <mxCell id="sGpYwbn9yWWsdyCqq6tq-49" value="" style="shape=flexArrow;endArrow=classic;html=1;rounded=0;sketch=1;hachureGap=4;jiggle=2;curveFitting=1;fontFamily=Architects Daughter;fontSource=https%3A%2F%2Ffonts.googleapis.com%2Fcss%3Ffamily%3DArchitects%2BDaughter;fontSize=16;" edge="1" parent="1">
          <mxGeometry width="50" height="50" relative="1" as="geometry">
            <mxPoint x="960" y="730" as="sourcePoint" />
            <mxPoint x="960" y="890" as="targetPoint" />
          </mxGeometry>
        </mxCell>
      </root>
    </mxGraphModel>
  </diagram>
</mxfile>
